<mxfile host="app.diagrams.net" modified="2023-05-12T02:14:08.817Z" agent="Mozilla/5.0 (Macintosh; Intel Mac OS X 10_15_7) AppleWebKit/537.36 (KHTML, like Gecko) Chrome/112.0.0.0 Safari/537.36" etag="kXMfbkjYq15vpQSe0F1R" version="21.2.9" type="github">
  <diagram id="C5RBs43oDa-KdzZeNtuy" name="Page-1">
    <mxGraphModel dx="909" dy="1701" grid="1" gridSize="10" guides="1" tooltips="1" connect="1" arrows="1" fold="1" page="1" pageScale="1" pageWidth="827" pageHeight="1169" math="0" shadow="0">
      <root>
        <mxCell id="WIyWlLk6GJQsqaUBKTNV-0" />
        <mxCell id="WIyWlLk6GJQsqaUBKTNV-1" parent="WIyWlLk6GJQsqaUBKTNV-0" />
        <mxCell id="vCDj5FPh0WnIYjuXSxBG-1" value="PC" style="rounded=0;whiteSpace=wrap;html=1;rotation=0;" vertex="1" parent="WIyWlLk6GJQsqaUBKTNV-1">
          <mxGeometry x="100" y="230" width="20" height="50" as="geometry" />
        </mxCell>
        <mxCell id="vCDj5FPh0WnIYjuXSxBG-2" value="命令メモリ" style="whiteSpace=wrap;html=1;aspect=fixed;" vertex="1" parent="WIyWlLk6GJQsqaUBKTNV-1">
          <mxGeometry x="200" y="220" width="120" height="120" as="geometry" />
        </mxCell>
        <mxCell id="vCDj5FPh0WnIYjuXSxBG-3" value="pc[11:0]" style="endArrow=classic;html=1;rounded=0;entryX=0;entryY=0.175;entryDx=0;entryDy=0;entryPerimeter=0;" edge="1" parent="WIyWlLk6GJQsqaUBKTNV-1" source="vCDj5FPh0WnIYjuXSxBG-17" target="vCDj5FPh0WnIYjuXSxBG-2">
          <mxGeometry width="50" height="50" relative="1" as="geometry">
            <mxPoint x="120" y="240" as="sourcePoint" />
            <mxPoint x="170" y="190" as="targetPoint" />
            <Array as="points">
              <mxPoint x="150" y="240" />
              <mxPoint x="160" y="240" />
              <mxPoint x="180" y="240" />
            </Array>
          </mxGeometry>
        </mxCell>
        <mxCell id="vCDj5FPh0WnIYjuXSxBG-5" value="address" style="text;html=1;strokeColor=none;fillColor=none;align=center;verticalAlign=middle;whiteSpace=wrap;rounded=0;" vertex="1" parent="WIyWlLk6GJQsqaUBKTNV-1">
          <mxGeometry x="210" y="230" width="26" height="10" as="geometry" />
        </mxCell>
        <mxCell id="vCDj5FPh0WnIYjuXSxBG-7" value="q" style="text;html=1;strokeColor=none;fillColor=none;align=center;verticalAlign=middle;whiteSpace=wrap;rounded=0;" vertex="1" parent="WIyWlLk6GJQsqaUBKTNV-1">
          <mxGeometry x="260" y="220" width="60" height="30" as="geometry" />
        </mxCell>
        <mxCell id="vCDj5FPh0WnIYjuXSxBG-8" value="" style="rounded=0;whiteSpace=wrap;html=1;" vertex="1" parent="WIyWlLk6GJQsqaUBKTNV-1">
          <mxGeometry x="480" y="-40" width="30" height="625" as="geometry" />
        </mxCell>
        <mxCell id="vCDj5FPh0WnIYjuXSxBG-9" value="" style="endArrow=classic;html=1;rounded=0;entryX=-0.095;entryY=0.449;entryDx=0;entryDy=0;entryPerimeter=0;" edge="1" parent="WIyWlLk6GJQsqaUBKTNV-1" source="vCDj5FPh0WnIYjuXSxBG-200" target="vCDj5FPh0WnIYjuXSxBG-8">
          <mxGeometry width="50" height="50" relative="1" as="geometry">
            <mxPoint x="320" y="240" as="sourcePoint" />
            <mxPoint x="370" y="190" as="targetPoint" />
          </mxGeometry>
        </mxCell>
        <mxCell id="vCDj5FPh0WnIYjuXSxBG-32" style="edgeStyle=orthogonalEdgeStyle;rounded=0;orthogonalLoop=1;jettySize=auto;html=1;exitX=0.5;exitY=0;exitDx=0;exitDy=0;entryX=0.5;entryY=0.488;entryDx=0;entryDy=0;entryPerimeter=0;endArrow=none;endFill=0;" edge="1" parent="WIyWlLk6GJQsqaUBKTNV-1" source="vCDj5FPh0WnIYjuXSxBG-10" target="vCDj5FPh0WnIYjuXSxBG-31">
          <mxGeometry relative="1" as="geometry" />
        </mxCell>
        <mxCell id="vCDj5FPh0WnIYjuXSxBG-10" value="Add" style="shape=trapezoid;perimeter=trapezoidPerimeter;whiteSpace=wrap;html=1;fixedSize=1;rotation=90;" vertex="1" parent="WIyWlLk6GJQsqaUBKTNV-1">
          <mxGeometry x="236" y="95" width="100" height="50" as="geometry" />
        </mxCell>
        <mxCell id="vCDj5FPh0WnIYjuXSxBG-16" value="" style="endArrow=none;html=1;rounded=0;entryDx=0;entryDy=0;entryPerimeter=0;endFill=0;" edge="1" parent="WIyWlLk6GJQsqaUBKTNV-1" target="vCDj5FPh0WnIYjuXSxBG-17">
          <mxGeometry width="50" height="50" relative="1" as="geometry">
            <mxPoint x="120" y="240" as="sourcePoint" />
            <mxPoint x="200" y="241" as="targetPoint" />
            <Array as="points" />
          </mxGeometry>
        </mxCell>
        <mxCell id="vCDj5FPh0WnIYjuXSxBG-17" value="" style="shape=waypoint;sketch=0;fillStyle=solid;size=6;pointerEvents=1;points=[];fillColor=none;resizable=0;rotatable=0;perimeter=centerPerimeter;snapToPoint=1;" vertex="1" parent="WIyWlLk6GJQsqaUBKTNV-1">
          <mxGeometry x="130" y="230" width="20" height="20" as="geometry" />
        </mxCell>
        <mxCell id="vCDj5FPh0WnIYjuXSxBG-19" value="" style="endArrow=classic;html=1;rounded=0;" edge="1" parent="WIyWlLk6GJQsqaUBKTNV-1">
          <mxGeometry width="50" height="50" relative="1" as="geometry">
            <mxPoint x="140" y="240" as="sourcePoint" />
            <mxPoint x="260" y="90" as="targetPoint" />
            <Array as="points">
              <mxPoint x="140" y="90" />
            </Array>
          </mxGeometry>
        </mxCell>
        <mxCell id="vCDj5FPh0WnIYjuXSxBG-23" style="edgeStyle=orthogonalEdgeStyle;rounded=0;orthogonalLoop=1;jettySize=auto;html=1;" edge="1" parent="WIyWlLk6GJQsqaUBKTNV-1" source="vCDj5FPh0WnIYjuXSxBG-20">
          <mxGeometry relative="1" as="geometry">
            <mxPoint x="260" y="145" as="targetPoint" />
          </mxGeometry>
        </mxCell>
        <mxCell id="vCDj5FPh0WnIYjuXSxBG-20" value="1" style="text;html=1;align=center;verticalAlign=middle;resizable=0;points=[];autosize=1;strokeColor=none;fillColor=none;" vertex="1" parent="WIyWlLk6GJQsqaUBKTNV-1">
          <mxGeometry x="180" y="130" width="30" height="30" as="geometry" />
        </mxCell>
        <mxCell id="vCDj5FPh0WnIYjuXSxBG-24" value="IF/ID" style="text;html=1;align=center;verticalAlign=middle;resizable=0;points=[];autosize=1;strokeColor=none;fillColor=none;" vertex="1" parent="WIyWlLk6GJQsqaUBKTNV-1">
          <mxGeometry x="470" y="-70" width="50" height="30" as="geometry" />
        </mxCell>
        <mxCell id="vCDj5FPh0WnIYjuXSxBG-29" value="" style="edgeStyle=segmentEdgeStyle;endArrow=classic;html=1;curved=0;rounded=0;endSize=8;startSize=8;" edge="1" parent="WIyWlLk6GJQsqaUBKTNV-1" source="vCDj5FPh0WnIYjuXSxBG-31">
          <mxGeometry width="50" height="50" relative="1" as="geometry">
            <mxPoint x="310" y="120" as="sourcePoint" />
            <mxPoint x="60" y="242" as="targetPoint" />
            <Array as="points">
              <mxPoint x="340" y="10" />
              <mxPoint x="20" y="10" />
              <mxPoint x="20" y="242" />
            </Array>
          </mxGeometry>
        </mxCell>
        <mxCell id="vCDj5FPh0WnIYjuXSxBG-107" value="pcplus1" style="edgeLabel;html=1;align=center;verticalAlign=middle;resizable=0;points=[];" vertex="1" connectable="0" parent="vCDj5FPh0WnIYjuXSxBG-29">
          <mxGeometry x="-0.1299" y="-3" relative="1" as="geometry">
            <mxPoint as="offset" />
          </mxGeometry>
        </mxCell>
        <mxCell id="vCDj5FPh0WnIYjuXSxBG-33" style="edgeStyle=orthogonalEdgeStyle;rounded=0;orthogonalLoop=1;jettySize=auto;html=1;entryX=-0.172;entryY=0.257;entryDx=0;entryDy=0;entryPerimeter=0;" edge="1" parent="WIyWlLk6GJQsqaUBKTNV-1" source="vCDj5FPh0WnIYjuXSxBG-31" target="vCDj5FPh0WnIYjuXSxBG-8">
          <mxGeometry relative="1" as="geometry" />
        </mxCell>
        <mxCell id="vCDj5FPh0WnIYjuXSxBG-171" value="pcplus1" style="edgeLabel;html=1;align=center;verticalAlign=middle;resizable=0;points=[];" vertex="1" connectable="0" parent="vCDj5FPh0WnIYjuXSxBG-33">
          <mxGeometry x="-0.1727" y="2" relative="1" as="geometry">
            <mxPoint as="offset" />
          </mxGeometry>
        </mxCell>
        <mxCell id="vCDj5FPh0WnIYjuXSxBG-31" value="" style="shape=waypoint;sketch=0;fillStyle=solid;size=6;pointerEvents=1;points=[];fillColor=none;resizable=0;rotatable=0;perimeter=centerPerimeter;snapToPoint=1;" vertex="1" parent="WIyWlLk6GJQsqaUBKTNV-1">
          <mxGeometry x="330" y="110" width="20" height="20" as="geometry" />
        </mxCell>
        <mxCell id="vCDj5FPh0WnIYjuXSxBG-34" value="レジスタ" style="rounded=0;whiteSpace=wrap;html=1;" vertex="1" parent="WIyWlLk6GJQsqaUBKTNV-1">
          <mxGeometry x="670" y="200" width="120" height="180" as="geometry" />
        </mxCell>
        <mxCell id="vCDj5FPh0WnIYjuXSxBG-36" value="&lt;font style=&quot;font-size: 15px;&quot;&gt;rd&lt;/font&gt;" style="text;html=1;align=center;verticalAlign=middle;resizable=0;points=[];autosize=1;strokeColor=none;fillColor=none;" vertex="1" parent="WIyWlLk6GJQsqaUBKTNV-1">
          <mxGeometry x="670" y="225" width="40" height="30" as="geometry" />
        </mxCell>
        <mxCell id="vCDj5FPh0WnIYjuXSxBG-37" value="&lt;font style=&quot;font-size: 15px;&quot;&gt;rs&lt;/font&gt;" style="text;html=1;align=center;verticalAlign=middle;resizable=0;points=[];autosize=1;strokeColor=none;fillColor=none;" vertex="1" parent="WIyWlLk6GJQsqaUBKTNV-1">
          <mxGeometry x="670" y="255" width="40" height="30" as="geometry" />
        </mxCell>
        <mxCell id="vCDj5FPh0WnIYjuXSxBG-40" style="edgeStyle=orthogonalEdgeStyle;rounded=0;orthogonalLoop=1;jettySize=auto;html=1;entryX=1;entryY=0.448;entryDx=0;entryDy=0;entryPerimeter=0;endArrow=none;endFill=0;" edge="1" parent="WIyWlLk6GJQsqaUBKTNV-1" source="vCDj5FPh0WnIYjuXSxBG-38" target="vCDj5FPh0WnIYjuXSxBG-8">
          <mxGeometry relative="1" as="geometry" />
        </mxCell>
        <mxCell id="vCDj5FPh0WnIYjuXSxBG-42" style="edgeStyle=orthogonalEdgeStyle;rounded=0;orthogonalLoop=1;jettySize=auto;html=1;entryX=0;entryY=0.5;entryDx=0;entryDy=0;entryPerimeter=0;" edge="1" parent="WIyWlLk6GJQsqaUBKTNV-1" source="vCDj5FPh0WnIYjuXSxBG-38" target="vCDj5FPh0WnIYjuXSxBG-36">
          <mxGeometry relative="1" as="geometry" />
        </mxCell>
        <mxCell id="vCDj5FPh0WnIYjuXSxBG-61" value="ir[10:8]" style="edgeLabel;html=1;align=center;verticalAlign=middle;resizable=0;points=[];" vertex="1" connectable="0" parent="vCDj5FPh0WnIYjuXSxBG-42">
          <mxGeometry x="0.1422" relative="1" as="geometry">
            <mxPoint as="offset" />
          </mxGeometry>
        </mxCell>
        <mxCell id="vCDj5FPh0WnIYjuXSxBG-47" style="edgeStyle=orthogonalEdgeStyle;rounded=0;orthogonalLoop=1;jettySize=auto;html=1;entryX=0.024;entryY=0.26;entryDx=0;entryDy=0;entryPerimeter=0;" edge="1" parent="WIyWlLk6GJQsqaUBKTNV-1" source="vCDj5FPh0WnIYjuXSxBG-49" target="vCDj5FPh0WnIYjuXSxBG-46">
          <mxGeometry relative="1" as="geometry">
            <mxPoint x="610" y="500" as="targetPoint" />
            <Array as="points">
              <mxPoint x="560" y="510" />
              <mxPoint x="610" y="510" />
            </Array>
          </mxGeometry>
        </mxCell>
        <mxCell id="vCDj5FPh0WnIYjuXSxBG-52" value="ir[10:8]" style="edgeLabel;html=1;align=center;verticalAlign=middle;resizable=0;points=[];" vertex="1" connectable="0" parent="vCDj5FPh0WnIYjuXSxBG-47">
          <mxGeometry x="-0.2354" relative="1" as="geometry">
            <mxPoint as="offset" />
          </mxGeometry>
        </mxCell>
        <mxCell id="vCDj5FPh0WnIYjuXSxBG-98" style="edgeStyle=orthogonalEdgeStyle;rounded=0;orthogonalLoop=1;jettySize=auto;html=1;entryX=0;entryY=0.5;entryDx=0;entryDy=0;" edge="1" parent="WIyWlLk6GJQsqaUBKTNV-1" source="vCDj5FPh0WnIYjuXSxBG-38" target="vCDj5FPh0WnIYjuXSxBG-97">
          <mxGeometry relative="1" as="geometry">
            <mxPoint x="590" as="targetPoint" />
            <Array as="points">
              <mxPoint x="560" />
            </Array>
          </mxGeometry>
        </mxCell>
        <mxCell id="vCDj5FPh0WnIYjuXSxBG-38" value="" style="shape=waypoint;sketch=0;fillStyle=solid;size=6;pointerEvents=1;points=[];fillColor=none;resizable=0;rotatable=0;perimeter=centerPerimeter;snapToPoint=1;" vertex="1" parent="WIyWlLk6GJQsqaUBKTNV-1">
          <mxGeometry x="550" y="230" width="20" height="20" as="geometry" />
        </mxCell>
        <mxCell id="vCDj5FPh0WnIYjuXSxBG-41" value="&lt;font style=&quot;font-size: 15px;&quot;&gt;rw&lt;/font&gt;" style="text;html=1;align=center;verticalAlign=middle;resizable=0;points=[];autosize=1;strokeColor=none;fillColor=none;" vertex="1" parent="WIyWlLk6GJQsqaUBKTNV-1">
          <mxGeometry x="670" y="285" width="40" height="30" as="geometry" />
        </mxCell>
        <mxCell id="vCDj5FPh0WnIYjuXSxBG-43" value="&lt;font style=&quot;font-size: 15px;&quot;&gt;data&lt;/font&gt;" style="text;html=1;align=center;verticalAlign=middle;resizable=0;points=[];autosize=1;strokeColor=none;fillColor=none;" vertex="1" parent="WIyWlLk6GJQsqaUBKTNV-1">
          <mxGeometry x="670" y="315" width="50" height="30" as="geometry" />
        </mxCell>
        <mxCell id="vCDj5FPh0WnIYjuXSxBG-77" style="edgeStyle=orthogonalEdgeStyle;rounded=0;orthogonalLoop=1;jettySize=auto;html=1;" edge="1" parent="WIyWlLk6GJQsqaUBKTNV-1" source="vCDj5FPh0WnIYjuXSxBG-80">
          <mxGeometry relative="1" as="geometry">
            <mxPoint x="859" y="102" as="targetPoint" />
            <Array as="points">
              <mxPoint x="860" y="102" />
            </Array>
          </mxGeometry>
        </mxCell>
        <mxCell id="vCDj5FPh0WnIYjuXSxBG-44" value="&lt;font style=&quot;font-size: 10px;&quot;&gt;Sign&lt;br&gt;Extend&lt;/font&gt;" style="ellipse;whiteSpace=wrap;html=1;aspect=fixed;" vertex="1" parent="WIyWlLk6GJQsqaUBKTNV-1">
          <mxGeometry x="710" y="420" width="40" height="40" as="geometry" />
        </mxCell>
        <mxCell id="vCDj5FPh0WnIYjuXSxBG-86" style="edgeStyle=orthogonalEdgeStyle;rounded=0;orthogonalLoop=1;jettySize=auto;html=1;entryX=0.035;entryY=0.833;entryDx=0;entryDy=0;entryPerimeter=0;" edge="1" parent="WIyWlLk6GJQsqaUBKTNV-1" source="vCDj5FPh0WnIYjuXSxBG-45" target="vCDj5FPh0WnIYjuXSxBG-62">
          <mxGeometry relative="1" as="geometry" />
        </mxCell>
        <mxCell id="vCDj5FPh0WnIYjuXSxBG-45" value="ALU&lt;br&gt;Control" style="ellipse;whiteSpace=wrap;html=1;aspect=fixed;" vertex="1" parent="WIyWlLk6GJQsqaUBKTNV-1">
          <mxGeometry x="710" y="460" width="40" height="40" as="geometry" />
        </mxCell>
        <mxCell id="vCDj5FPh0WnIYjuXSxBG-109" style="edgeStyle=orthogonalEdgeStyle;rounded=0;orthogonalLoop=1;jettySize=auto;html=1;entryX=0;entryY=0.896;entryDx=0;entryDy=0;entryPerimeter=0;" edge="1" parent="WIyWlLk6GJQsqaUBKTNV-1" source="vCDj5FPh0WnIYjuXSxBG-46" target="vCDj5FPh0WnIYjuXSxBG-62">
          <mxGeometry relative="1" as="geometry" />
        </mxCell>
        <mxCell id="vCDj5FPh0WnIYjuXSxBG-46" value="&lt;font size=&quot;1&quot;&gt;0&lt;br&gt;1&lt;br&gt;&lt;/font&gt;" style="ellipse;whiteSpace=wrap;html=1;" vertex="1" parent="WIyWlLk6GJQsqaUBKTNV-1">
          <mxGeometry x="670" y="500" width="20" height="40" as="geometry" />
        </mxCell>
        <mxCell id="vCDj5FPh0WnIYjuXSxBG-48" value="" style="edgeStyle=orthogonalEdgeStyle;rounded=0;orthogonalLoop=1;jettySize=auto;html=1;entryDx=0;entryDy=0;entryPerimeter=0;endArrow=none;endFill=0;" edge="1" parent="WIyWlLk6GJQsqaUBKTNV-1" source="vCDj5FPh0WnIYjuXSxBG-56" target="vCDj5FPh0WnIYjuXSxBG-49">
          <mxGeometry relative="1" as="geometry">
            <mxPoint x="670" y="510" as="targetPoint" />
            <mxPoint x="560" y="240" as="sourcePoint" />
            <Array as="points" />
          </mxGeometry>
        </mxCell>
        <mxCell id="vCDj5FPh0WnIYjuXSxBG-50" value="ir[13:11]" style="edgeStyle=orthogonalEdgeStyle;rounded=0;orthogonalLoop=1;jettySize=auto;html=1;" edge="1" parent="WIyWlLk6GJQsqaUBKTNV-1" source="vCDj5FPh0WnIYjuXSxBG-49" target="vCDj5FPh0WnIYjuXSxBG-46">
          <mxGeometry relative="1" as="geometry">
            <mxPoint x="640" y="530" as="targetPoint" />
            <Array as="points">
              <mxPoint x="560" y="530" />
            </Array>
          </mxGeometry>
        </mxCell>
        <mxCell id="vCDj5FPh0WnIYjuXSxBG-49" value="" style="shape=waypoint;sketch=0;fillStyle=solid;size=6;pointerEvents=1;points=[];fillColor=none;resizable=0;rotatable=0;perimeter=centerPerimeter;snapToPoint=1;" vertex="1" parent="WIyWlLk6GJQsqaUBKTNV-1">
          <mxGeometry x="550" y="500" width="20" height="20" as="geometry" />
        </mxCell>
        <mxCell id="vCDj5FPh0WnIYjuXSxBG-55" style="edgeStyle=orthogonalEdgeStyle;rounded=0;orthogonalLoop=1;jettySize=auto;html=1;entryX=0;entryY=0.5;entryDx=0;entryDy=0;" edge="1" parent="WIyWlLk6GJQsqaUBKTNV-1" source="vCDj5FPh0WnIYjuXSxBG-54" target="vCDj5FPh0WnIYjuXSxBG-45">
          <mxGeometry relative="1" as="geometry" />
        </mxCell>
        <mxCell id="vCDj5FPh0WnIYjuXSxBG-54" value="" style="shape=waypoint;sketch=0;fillStyle=solid;size=6;pointerEvents=1;points=[];fillColor=none;resizable=0;rotatable=0;perimeter=centerPerimeter;snapToPoint=1;" vertex="1" parent="WIyWlLk6GJQsqaUBKTNV-1">
          <mxGeometry x="550" y="470" width="20" height="20" as="geometry" />
        </mxCell>
        <mxCell id="vCDj5FPh0WnIYjuXSxBG-57" style="edgeStyle=orthogonalEdgeStyle;rounded=0;orthogonalLoop=1;jettySize=auto;html=1;entryX=0;entryY=0.5;entryDx=0;entryDy=0;" edge="1" parent="WIyWlLk6GJQsqaUBKTNV-1" source="vCDj5FPh0WnIYjuXSxBG-56" target="vCDj5FPh0WnIYjuXSxBG-44">
          <mxGeometry relative="1" as="geometry">
            <Array as="points">
              <mxPoint x="560" y="440" />
            </Array>
          </mxGeometry>
        </mxCell>
        <mxCell id="vCDj5FPh0WnIYjuXSxBG-58" value="ir[7:0]" style="edgeLabel;html=1;align=center;verticalAlign=middle;resizable=0;points=[];" vertex="1" connectable="0" parent="vCDj5FPh0WnIYjuXSxBG-57">
          <mxGeometry x="0.0808" relative="1" as="geometry">
            <mxPoint x="-41" as="offset" />
          </mxGeometry>
        </mxCell>
        <mxCell id="vCDj5FPh0WnIYjuXSxBG-60" value="ir[13:11]" style="edgeStyle=orthogonalEdgeStyle;rounded=0;orthogonalLoop=1;jettySize=auto;html=1;entryX=0;entryY=0.5;entryDx=0;entryDy=0;entryPerimeter=0;" edge="1" parent="WIyWlLk6GJQsqaUBKTNV-1" source="vCDj5FPh0WnIYjuXSxBG-59" target="vCDj5FPh0WnIYjuXSxBG-37">
          <mxGeometry relative="1" as="geometry" />
        </mxCell>
        <mxCell id="vCDj5FPh0WnIYjuXSxBG-59" value="" style="shape=waypoint;sketch=0;fillStyle=solid;size=6;pointerEvents=1;points=[];fillColor=none;resizable=0;rotatable=0;perimeter=centerPerimeter;snapToPoint=1;" vertex="1" parent="WIyWlLk6GJQsqaUBKTNV-1">
          <mxGeometry x="550" y="260" width="20" height="20" as="geometry" />
        </mxCell>
        <mxCell id="vCDj5FPh0WnIYjuXSxBG-62" value="" style="rounded=0;whiteSpace=wrap;html=1;" vertex="1" parent="WIyWlLk6GJQsqaUBKTNV-1">
          <mxGeometry x="990" y="-40" width="30" height="625" as="geometry" />
        </mxCell>
        <mxCell id="vCDj5FPh0WnIYjuXSxBG-65" style="edgeStyle=orthogonalEdgeStyle;rounded=0;orthogonalLoop=1;jettySize=auto;html=1;entryX=0;entryY=0.448;entryDx=0;entryDy=0;entryPerimeter=0;" edge="1" parent="WIyWlLk6GJQsqaUBKTNV-1" source="vCDj5FPh0WnIYjuXSxBG-63" target="vCDj5FPh0WnIYjuXSxBG-62">
          <mxGeometry relative="1" as="geometry" />
        </mxCell>
        <mxCell id="vCDj5FPh0WnIYjuXSxBG-63" value="&lt;font style=&quot;font-size: 15px;&quot;&gt;ar&lt;/font&gt;" style="text;html=1;align=center;verticalAlign=middle;resizable=0;points=[];autosize=1;strokeColor=none;fillColor=none;" vertex="1" parent="WIyWlLk6GJQsqaUBKTNV-1">
          <mxGeometry x="750" y="225" width="40" height="30" as="geometry" />
        </mxCell>
        <mxCell id="vCDj5FPh0WnIYjuXSxBG-67" style="edgeStyle=orthogonalEdgeStyle;rounded=0;orthogonalLoop=1;jettySize=auto;html=1;entryX=0.2;entryY=0.26;entryDx=0;entryDy=0;entryPerimeter=0;" edge="1" parent="WIyWlLk6GJQsqaUBKTNV-1" source="vCDj5FPh0WnIYjuXSxBG-186" target="vCDj5FPh0WnIYjuXSxBG-66">
          <mxGeometry relative="1" as="geometry" />
        </mxCell>
        <mxCell id="vCDj5FPh0WnIYjuXSxBG-64" value="&lt;font style=&quot;font-size: 15px;&quot;&gt;br&lt;/font&gt;" style="text;html=1;align=center;verticalAlign=middle;resizable=0;points=[];autosize=1;strokeColor=none;fillColor=none;" vertex="1" parent="WIyWlLk6GJQsqaUBKTNV-1">
          <mxGeometry x="750" y="255" width="40" height="30" as="geometry" />
        </mxCell>
        <mxCell id="vCDj5FPh0WnIYjuXSxBG-89" style="edgeStyle=orthogonalEdgeStyle;rounded=0;orthogonalLoop=1;jettySize=auto;html=1;entryX=0;entryY=0.512;entryDx=0;entryDy=0;entryPerimeter=0;" edge="1" parent="WIyWlLk6GJQsqaUBKTNV-1" source="vCDj5FPh0WnIYjuXSxBG-66" target="vCDj5FPh0WnIYjuXSxBG-62">
          <mxGeometry relative="1" as="geometry" />
        </mxCell>
        <mxCell id="vCDj5FPh0WnIYjuXSxBG-66" value="&lt;font size=&quot;1&quot;&gt;0&lt;br&gt;1&lt;br&gt;&lt;/font&gt;" style="ellipse;whiteSpace=wrap;html=1;" vertex="1" parent="WIyWlLk6GJQsqaUBKTNV-1">
          <mxGeometry x="890" y="260" width="20" height="40" as="geometry" />
        </mxCell>
        <mxCell id="vCDj5FPh0WnIYjuXSxBG-103" style="edgeStyle=orthogonalEdgeStyle;rounded=0;orthogonalLoop=1;jettySize=auto;html=1;exitX=0.5;exitY=0;exitDx=0;exitDy=0;" edge="1" parent="WIyWlLk6GJQsqaUBKTNV-1" source="vCDj5FPh0WnIYjuXSxBG-69">
          <mxGeometry relative="1" as="geometry">
            <mxPoint x="60" y="267" as="targetPoint" />
            <Array as="points">
              <mxPoint x="845" y="-70" />
              <mxPoint x="8" y="-70" />
              <mxPoint x="8" y="267" />
            </Array>
          </mxGeometry>
        </mxCell>
        <mxCell id="vCDj5FPh0WnIYjuXSxBG-108" value="branch" style="edgeLabel;html=1;align=center;verticalAlign=middle;resizable=0;points=[];" vertex="1" connectable="0" parent="vCDj5FPh0WnIYjuXSxBG-103">
          <mxGeometry x="-0.5559" y="-3" relative="1" as="geometry">
            <mxPoint x="-72" as="offset" />
          </mxGeometry>
        </mxCell>
        <mxCell id="vCDj5FPh0WnIYjuXSxBG-69" value="Add" style="shape=trapezoid;perimeter=trapezoidPerimeter;whiteSpace=wrap;html=1;fixedSize=1;" vertex="1" parent="WIyWlLk6GJQsqaUBKTNV-1">
          <mxGeometry x="810" y="70" width="70" height="30" as="geometry" />
        </mxCell>
        <mxCell id="vCDj5FPh0WnIYjuXSxBG-79" value="" style="edgeStyle=orthogonalEdgeStyle;rounded=0;orthogonalLoop=1;jettySize=auto;html=1;entryDx=0;entryDy=0;entryPerimeter=0;endArrow=none;endFill=0;" edge="1" parent="WIyWlLk6GJQsqaUBKTNV-1" source="vCDj5FPh0WnIYjuXSxBG-44" target="vCDj5FPh0WnIYjuXSxBG-80">
          <mxGeometry relative="1" as="geometry">
            <mxPoint x="750" y="420" as="sourcePoint" />
            <mxPoint x="859" y="102" as="targetPoint" />
          </mxGeometry>
        </mxCell>
        <mxCell id="vCDj5FPh0WnIYjuXSxBG-83" value="sign_ext_d" style="edgeLabel;html=1;align=center;verticalAlign=middle;resizable=0;points=[];" vertex="1" connectable="0" parent="vCDj5FPh0WnIYjuXSxBG-79">
          <mxGeometry x="-0.5206" y="1" relative="1" as="geometry">
            <mxPoint as="offset" />
          </mxGeometry>
        </mxCell>
        <mxCell id="vCDj5FPh0WnIYjuXSxBG-81" style="edgeStyle=orthogonalEdgeStyle;rounded=0;orthogonalLoop=1;jettySize=auto;html=1;entryX=0.171;entryY=0.731;entryDx=0;entryDy=0;entryPerimeter=0;" edge="1" parent="WIyWlLk6GJQsqaUBKTNV-1" source="vCDj5FPh0WnIYjuXSxBG-80" target="vCDj5FPh0WnIYjuXSxBG-66">
          <mxGeometry relative="1" as="geometry" />
        </mxCell>
        <mxCell id="vCDj5FPh0WnIYjuXSxBG-80" value="" style="shape=waypoint;sketch=0;fillStyle=solid;size=6;pointerEvents=1;points=[];fillColor=none;resizable=0;rotatable=0;perimeter=centerPerimeter;snapToPoint=1;" vertex="1" parent="WIyWlLk6GJQsqaUBKTNV-1">
          <mxGeometry x="850" y="280" width="20" height="20" as="geometry" />
        </mxCell>
        <mxCell id="vCDj5FPh0WnIYjuXSxBG-82" value="" style="endArrow=classic;html=1;rounded=0;entryX=0.25;entryY=1;entryDx=0;entryDy=0;" edge="1" parent="WIyWlLk6GJQsqaUBKTNV-1" target="vCDj5FPh0WnIYjuXSxBG-69">
          <mxGeometry width="50" height="50" relative="1" as="geometry">
            <mxPoint x="510" y="120" as="sourcePoint" />
            <mxPoint x="820" y="120" as="targetPoint" />
            <Array as="points">
              <mxPoint x="828" y="120" />
            </Array>
          </mxGeometry>
        </mxCell>
        <mxCell id="vCDj5FPh0WnIYjuXSxBG-85" value="ir" style="text;html=1;align=center;verticalAlign=middle;resizable=0;points=[];autosize=1;strokeColor=default;fillColor=none;" vertex="1" parent="WIyWlLk6GJQsqaUBKTNV-1">
          <mxGeometry x="480" y="225" width="30" height="30" as="geometry" />
        </mxCell>
        <mxCell id="vCDj5FPh0WnIYjuXSxBG-124" style="edgeStyle=orthogonalEdgeStyle;rounded=0;orthogonalLoop=1;jettySize=auto;html=1;entryX=0.25;entryY=1;entryDx=0;entryDy=0;" edge="1" parent="WIyWlLk6GJQsqaUBKTNV-1" source="vCDj5FPh0WnIYjuXSxBG-90" target="vCDj5FPh0WnIYjuXSxBG-120">
          <mxGeometry relative="1" as="geometry" />
        </mxCell>
        <mxCell id="vCDj5FPh0WnIYjuXSxBG-90" value="ar" style="text;strokeColor=default;align=center;fillColor=none;html=1;verticalAlign=middle;whiteSpace=wrap;rounded=0;" vertex="1" parent="WIyWlLk6GJQsqaUBKTNV-1">
          <mxGeometry x="990" y="225" width="30" height="30" as="geometry" />
        </mxCell>
        <mxCell id="vCDj5FPh0WnIYjuXSxBG-128" style="edgeStyle=orthogonalEdgeStyle;rounded=0;orthogonalLoop=1;jettySize=auto;html=1;entryX=1;entryY=0.5;entryDx=0;entryDy=0;" edge="1" parent="WIyWlLk6GJQsqaUBKTNV-1" source="vCDj5FPh0WnIYjuXSxBG-92" target="vCDj5FPh0WnIYjuXSxBG-120">
          <mxGeometry relative="1" as="geometry" />
        </mxCell>
        <mxCell id="vCDj5FPh0WnIYjuXSxBG-92" value="op&lt;br&gt;code" style="text;strokeColor=default;align=center;fillColor=none;html=1;verticalAlign=middle;whiteSpace=wrap;rounded=0;" vertex="1" parent="WIyWlLk6GJQsqaUBKTNV-1">
          <mxGeometry x="990" y="465" width="30" height="30" as="geometry" />
        </mxCell>
        <mxCell id="vCDj5FPh0WnIYjuXSxBG-125" style="edgeStyle=orthogonalEdgeStyle;rounded=0;orthogonalLoop=1;jettySize=auto;html=1;entryX=0.65;entryY=1;entryDx=0;entryDy=0;entryPerimeter=0;" edge="1" parent="WIyWlLk6GJQsqaUBKTNV-1" source="vCDj5FPh0WnIYjuXSxBG-93" target="vCDj5FPh0WnIYjuXSxBG-120">
          <mxGeometry relative="1" as="geometry" />
        </mxCell>
        <mxCell id="vCDj5FPh0WnIYjuXSxBG-93" value="br" style="text;strokeColor=default;align=center;fillColor=none;html=1;verticalAlign=middle;whiteSpace=wrap;rounded=0;" vertex="1" parent="WIyWlLk6GJQsqaUBKTNV-1">
          <mxGeometry x="990" y="265" width="30" height="30" as="geometry" />
        </mxCell>
        <mxCell id="vCDj5FPh0WnIYjuXSxBG-156" style="edgeStyle=orthogonalEdgeStyle;rounded=0;orthogonalLoop=1;jettySize=auto;html=1;entryX=0;entryY=0.5;entryDx=0;entryDy=0;" edge="1" parent="WIyWlLk6GJQsqaUBKTNV-1" source="vCDj5FPh0WnIYjuXSxBG-94" target="vCDj5FPh0WnIYjuXSxBG-116">
          <mxGeometry relative="1" as="geometry" />
        </mxCell>
        <mxCell id="vCDj5FPh0WnIYjuXSxBG-94" value="&lt;font style=&quot;font-size: 10px;&quot; color=&quot;#3399ff&quot;&gt;mem&lt;br&gt;toreg&lt;/font&gt;" style="text;strokeColor=default;align=center;fillColor=none;html=1;verticalAlign=middle;whiteSpace=wrap;rounded=0;" vertex="1" parent="WIyWlLk6GJQsqaUBKTNV-1">
          <mxGeometry x="990" y="-40" width="30" height="40" as="geometry" />
        </mxCell>
        <mxCell id="vCDj5FPh0WnIYjuXSxBG-155" style="edgeStyle=orthogonalEdgeStyle;rounded=0;orthogonalLoop=1;jettySize=auto;html=1;entryX=0;entryY=0.5;entryDx=0;entryDy=0;" edge="1" parent="WIyWlLk6GJQsqaUBKTNV-1" source="vCDj5FPh0WnIYjuXSxBG-95" target="vCDj5FPh0WnIYjuXSxBG-117">
          <mxGeometry relative="1" as="geometry" />
        </mxCell>
        <mxCell id="vCDj5FPh0WnIYjuXSxBG-95" value="&lt;font color=&quot;#3399ff&quot;&gt;mem&lt;br&gt;read&lt;br&gt;&lt;/font&gt;" style="text;strokeColor=default;align=center;fillColor=none;html=1;verticalAlign=middle;whiteSpace=wrap;rounded=0;" vertex="1" parent="WIyWlLk6GJQsqaUBKTNV-1">
          <mxGeometry x="990" width="30" height="40" as="geometry" />
        </mxCell>
        <mxCell id="vCDj5FPh0WnIYjuXSxBG-154" style="edgeStyle=orthogonalEdgeStyle;rounded=0;orthogonalLoop=1;jettySize=auto;html=1;entryX=0;entryY=0.5;entryDx=0;entryDy=0;" edge="1" parent="WIyWlLk6GJQsqaUBKTNV-1" source="vCDj5FPh0WnIYjuXSxBG-96" target="vCDj5FPh0WnIYjuXSxBG-118">
          <mxGeometry relative="1" as="geometry" />
        </mxCell>
        <mxCell id="vCDj5FPh0WnIYjuXSxBG-96" value="&lt;font color=&quot;#3399ff&quot;&gt;mem&lt;br&gt;write&lt;br&gt;&lt;/font&gt;" style="text;strokeColor=default;align=center;fillColor=none;html=1;verticalAlign=middle;whiteSpace=wrap;rounded=0;" vertex="1" parent="WIyWlLk6GJQsqaUBKTNV-1">
          <mxGeometry x="990" y="40" width="30" height="40" as="geometry" />
        </mxCell>
        <mxCell id="vCDj5FPh0WnIYjuXSxBG-101" style="edgeStyle=orthogonalEdgeStyle;rounded=0;orthogonalLoop=1;jettySize=auto;html=1;exitX=1;exitY=0.5;exitDx=0;exitDy=0;entryX=0;entryY=0.5;entryDx=0;entryDy=0;" edge="1" parent="WIyWlLk6GJQsqaUBKTNV-1" source="vCDj5FPh0WnIYjuXSxBG-97" target="vCDj5FPh0WnIYjuXSxBG-95">
          <mxGeometry relative="1" as="geometry">
            <Array as="points">
              <mxPoint x="860" />
              <mxPoint x="860" y="20" />
            </Array>
          </mxGeometry>
        </mxCell>
        <mxCell id="vCDj5FPh0WnIYjuXSxBG-102" style="edgeStyle=orthogonalEdgeStyle;rounded=0;orthogonalLoop=1;jettySize=auto;html=1;exitX=1;exitY=1;exitDx=0;exitDy=0;entryX=0;entryY=0.5;entryDx=0;entryDy=0;" edge="1" parent="WIyWlLk6GJQsqaUBKTNV-1" source="vCDj5FPh0WnIYjuXSxBG-97" target="vCDj5FPh0WnIYjuXSxBG-96">
          <mxGeometry relative="1" as="geometry">
            <Array as="points">
              <mxPoint x="820" y="21" />
              <mxPoint x="820" y="60" />
            </Array>
          </mxGeometry>
        </mxCell>
        <mxCell id="vCDj5FPh0WnIYjuXSxBG-97" value="Control" style="ellipse;whiteSpace=wrap;html=1;aspect=fixed;" vertex="1" parent="WIyWlLk6GJQsqaUBKTNV-1">
          <mxGeometry x="650" y="-30" width="60" height="60" as="geometry" />
        </mxCell>
        <mxCell id="vCDj5FPh0WnIYjuXSxBG-100" value="" style="endArrow=classic;html=1;rounded=0;entryX=0;entryY=0.5;entryDx=0;entryDy=0;exitX=1;exitY=0;exitDx=0;exitDy=0;" edge="1" parent="WIyWlLk6GJQsqaUBKTNV-1" source="vCDj5FPh0WnIYjuXSxBG-97" target="vCDj5FPh0WnIYjuXSxBG-94">
          <mxGeometry width="50" height="50" relative="1" as="geometry">
            <mxPoint x="870" y="30" as="sourcePoint" />
            <mxPoint x="920" y="-20" as="targetPoint" />
            <Array as="points">
              <mxPoint x="970" y="-20" />
            </Array>
          </mxGeometry>
        </mxCell>
        <mxCell id="vCDj5FPh0WnIYjuXSxBG-106" style="edgeStyle=orthogonalEdgeStyle;rounded=0;orthogonalLoop=1;jettySize=auto;html=1;entryX=0;entryY=0.5;entryDx=0;entryDy=0;" edge="1" parent="WIyWlLk6GJQsqaUBKTNV-1" source="vCDj5FPh0WnIYjuXSxBG-104" target="vCDj5FPh0WnIYjuXSxBG-1">
          <mxGeometry relative="1" as="geometry" />
        </mxCell>
        <mxCell id="vCDj5FPh0WnIYjuXSxBG-104" value="&lt;font size=&quot;1&quot;&gt;0&lt;br&gt;1&lt;br&gt;&lt;/font&gt;" style="ellipse;whiteSpace=wrap;html=1;" vertex="1" parent="WIyWlLk6GJQsqaUBKTNV-1">
          <mxGeometry x="60" y="235" width="20" height="40" as="geometry" />
        </mxCell>
        <mxCell id="vCDj5FPh0WnIYjuXSxBG-133" style="edgeStyle=orthogonalEdgeStyle;rounded=0;orthogonalLoop=1;jettySize=auto;html=1;entryX=0;entryY=0.5;entryDx=0;entryDy=0;" edge="1" parent="WIyWlLk6GJQsqaUBKTNV-1" source="vCDj5FPh0WnIYjuXSxBG-110" target="vCDj5FPh0WnIYjuXSxBG-119">
          <mxGeometry relative="1" as="geometry" />
        </mxCell>
        <mxCell id="vCDj5FPh0WnIYjuXSxBG-110" value="rw" style="text;strokeColor=default;align=center;fillColor=none;html=1;verticalAlign=middle;whiteSpace=wrap;rounded=0;" vertex="1" parent="WIyWlLk6GJQsqaUBKTNV-1">
          <mxGeometry x="990" y="505" width="30" height="30" as="geometry" />
        </mxCell>
        <mxCell id="vCDj5FPh0WnIYjuXSxBG-112" value="" style="rounded=0;whiteSpace=wrap;html=1;" vertex="1" parent="WIyWlLk6GJQsqaUBKTNV-1">
          <mxGeometry x="1241" y="-40" width="30" height="625" as="geometry" />
        </mxCell>
        <mxCell id="vCDj5FPh0WnIYjuXSxBG-138" style="edgeStyle=orthogonalEdgeStyle;rounded=0;orthogonalLoop=1;jettySize=auto;html=1;entryX=-0.022;entryY=0.129;entryDx=0;entryDy=0;entryPerimeter=0;" edge="1" parent="WIyWlLk6GJQsqaUBKTNV-1" source="vCDj5FPh0WnIYjuXSxBG-150" target="vCDj5FPh0WnIYjuXSxBG-135">
          <mxGeometry relative="1" as="geometry" />
        </mxCell>
        <mxCell id="vCDj5FPh0WnIYjuXSxBG-113" value="dr" style="text;strokeColor=default;align=center;fillColor=none;html=1;verticalAlign=middle;whiteSpace=wrap;rounded=0;" vertex="1" parent="WIyWlLk6GJQsqaUBKTNV-1">
          <mxGeometry x="1241" y="250" width="30" height="30" as="geometry" />
        </mxCell>
        <mxCell id="vCDj5FPh0WnIYjuXSxBG-157" style="edgeStyle=orthogonalEdgeStyle;rounded=0;orthogonalLoop=1;jettySize=auto;html=1;entryX=0.072;entryY=0.035;entryDx=0;entryDy=0;entryPerimeter=0;" edge="1" parent="WIyWlLk6GJQsqaUBKTNV-1" source="vCDj5FPh0WnIYjuXSxBG-116" target="vCDj5FPh0WnIYjuXSxBG-134">
          <mxGeometry relative="1" as="geometry" />
        </mxCell>
        <mxCell id="vCDj5FPh0WnIYjuXSxBG-116" value="&lt;font style=&quot;font-size: 10px;&quot; color=&quot;#3399ff&quot;&gt;mem&lt;br&gt;toreg&lt;/font&gt;" style="text;strokeColor=default;align=center;fillColor=none;html=1;verticalAlign=middle;whiteSpace=wrap;rounded=0;" vertex="1" parent="WIyWlLk6GJQsqaUBKTNV-1">
          <mxGeometry x="1241" y="-40" width="30" height="40" as="geometry" />
        </mxCell>
        <mxCell id="vCDj5FPh0WnIYjuXSxBG-117" value="&lt;font color=&quot;#3399ff&quot;&gt;mem&lt;br&gt;read&lt;br&gt;&lt;/font&gt;" style="text;strokeColor=default;align=center;fillColor=none;html=1;verticalAlign=middle;whiteSpace=wrap;rounded=0;" vertex="1" parent="WIyWlLk6GJQsqaUBKTNV-1">
          <mxGeometry x="1241" width="30" height="40" as="geometry" />
        </mxCell>
        <mxCell id="vCDj5FPh0WnIYjuXSxBG-118" value="&lt;font color=&quot;#3399ff&quot;&gt;mem&lt;br&gt;write&lt;br&gt;&lt;/font&gt;" style="text;strokeColor=default;align=center;fillColor=none;html=1;verticalAlign=middle;whiteSpace=wrap;rounded=0;" vertex="1" parent="WIyWlLk6GJQsqaUBKTNV-1">
          <mxGeometry x="1241" y="40" width="30" height="40" as="geometry" />
        </mxCell>
        <mxCell id="vCDj5FPh0WnIYjuXSxBG-160" style="edgeStyle=orthogonalEdgeStyle;rounded=0;orthogonalLoop=1;jettySize=auto;html=1;entryX=0;entryY=0.5;entryDx=0;entryDy=0;" edge="1" parent="WIyWlLk6GJQsqaUBKTNV-1" source="vCDj5FPh0WnIYjuXSxBG-119" target="vCDj5FPh0WnIYjuXSxBG-159">
          <mxGeometry relative="1" as="geometry" />
        </mxCell>
        <mxCell id="vCDj5FPh0WnIYjuXSxBG-119" value="rw" style="text;strokeColor=default;align=center;fillColor=none;html=1;verticalAlign=middle;whiteSpace=wrap;rounded=0;" vertex="1" parent="WIyWlLk6GJQsqaUBKTNV-1">
          <mxGeometry x="1241" y="505" width="30" height="30" as="geometry" />
        </mxCell>
        <mxCell id="vCDj5FPh0WnIYjuXSxBG-127" style="edgeStyle=orthogonalEdgeStyle;rounded=0;orthogonalLoop=1;jettySize=auto;html=1;" edge="1" parent="WIyWlLk6GJQsqaUBKTNV-1" source="vCDj5FPh0WnIYjuXSxBG-120">
          <mxGeometry relative="1" as="geometry">
            <mxPoint x="1240" y="265.0000000000002" as="targetPoint" />
          </mxGeometry>
        </mxCell>
        <mxCell id="vCDj5FPh0WnIYjuXSxBG-132" value="dr" style="edgeLabel;html=1;align=center;verticalAlign=middle;resizable=0;points=[];" vertex="1" connectable="0" parent="vCDj5FPh0WnIYjuXSxBG-127">
          <mxGeometry x="-0.5005" relative="1" as="geometry">
            <mxPoint as="offset" />
          </mxGeometry>
        </mxCell>
        <mxCell id="vCDj5FPh0WnIYjuXSxBG-120" value="ALU&amp;amp;シフタ" style="shape=trapezoid;perimeter=trapezoidPerimeter;whiteSpace=wrap;html=1;fixedSize=1;rotation=90;" vertex="1" parent="WIyWlLk6GJQsqaUBKTNV-1">
          <mxGeometry x="1070" y="235" width="100" height="60" as="geometry" />
        </mxCell>
        <mxCell id="vCDj5FPh0WnIYjuXSxBG-129" value="" style="edgeStyle=segmentEdgeStyle;endArrow=classic;html=1;curved=0;rounded=0;endSize=8;startSize=8;" edge="1" parent="WIyWlLk6GJQsqaUBKTNV-1" target="vCDj5FPh0WnIYjuXSxBG-97">
          <mxGeometry width="50" height="50" relative="1" as="geometry">
            <mxPoint x="1150" y="250" as="sourcePoint" />
            <mxPoint x="1170" y="-60" as="targetPoint" />
            <Array as="points">
              <mxPoint x="1190" y="250" />
              <mxPoint x="1190" y="-90" />
              <mxPoint x="680" y="-90" />
            </Array>
          </mxGeometry>
        </mxCell>
        <mxCell id="vCDj5FPh0WnIYjuXSxBG-131" value="szcv" style="edgeLabel;html=1;align=center;verticalAlign=middle;resizable=0;points=[];" vertex="1" connectable="0" parent="vCDj5FPh0WnIYjuXSxBG-129">
          <mxGeometry x="-0.9551" y="-1" relative="1" as="geometry">
            <mxPoint as="offset" />
          </mxGeometry>
        </mxCell>
        <mxCell id="vCDj5FPh0WnIYjuXSxBG-134" value="" style="rounded=0;whiteSpace=wrap;html=1;" vertex="1" parent="WIyWlLk6GJQsqaUBKTNV-1">
          <mxGeometry x="1690" y="-42.5" width="30" height="625" as="geometry" />
        </mxCell>
        <mxCell id="vCDj5FPh0WnIYjuXSxBG-135" value="データメモリ" style="whiteSpace=wrap;html=1;aspect=fixed;" vertex="1" parent="WIyWlLk6GJQsqaUBKTNV-1">
          <mxGeometry x="1410" y="250" width="120" height="120" as="geometry" />
        </mxCell>
        <mxCell id="vCDj5FPh0WnIYjuXSxBG-136" value="address" style="text;html=1;strokeColor=none;fillColor=none;align=center;verticalAlign=middle;whiteSpace=wrap;rounded=0;" vertex="1" parent="WIyWlLk6GJQsqaUBKTNV-1">
          <mxGeometry x="1420" y="260" width="26" height="10" as="geometry" />
        </mxCell>
        <mxCell id="vCDj5FPh0WnIYjuXSxBG-144" style="edgeStyle=orthogonalEdgeStyle;rounded=0;orthogonalLoop=1;jettySize=auto;html=1;entryX=-0.196;entryY=0.323;entryDx=0;entryDy=0;entryPerimeter=0;" edge="1" parent="WIyWlLk6GJQsqaUBKTNV-1" source="vCDj5FPh0WnIYjuXSxBG-139" target="vCDj5FPh0WnIYjuXSxBG-143">
          <mxGeometry relative="1" as="geometry" />
        </mxCell>
        <mxCell id="vCDj5FPh0WnIYjuXSxBG-139" value="q" style="text;html=1;strokeColor=none;fillColor=none;align=center;verticalAlign=middle;whiteSpace=wrap;rounded=0;" vertex="1" parent="WIyWlLk6GJQsqaUBKTNV-1">
          <mxGeometry x="1490" y="250" width="40" height="30" as="geometry" />
        </mxCell>
        <mxCell id="vCDj5FPh0WnIYjuXSxBG-141" value="&lt;font color=&quot;#3399ff&quot;&gt;memwrite&lt;/font&gt;" style="text;html=1;align=center;verticalAlign=middle;resizable=0;points=[];autosize=1;strokeColor=none;fillColor=none;" vertex="1" parent="WIyWlLk6GJQsqaUBKTNV-1">
          <mxGeometry x="1320" y="370" width="80" height="30" as="geometry" />
        </mxCell>
        <mxCell id="vCDj5FPh0WnIYjuXSxBG-145" style="edgeStyle=orthogonalEdgeStyle;rounded=0;orthogonalLoop=1;jettySize=auto;html=1;entryX=-0.152;entryY=0.78;entryDx=0;entryDy=0;entryPerimeter=0;" edge="1" parent="WIyWlLk6GJQsqaUBKTNV-1" source="vCDj5FPh0WnIYjuXSxBG-142" target="vCDj5FPh0WnIYjuXSxBG-143">
          <mxGeometry relative="1" as="geometry">
            <mxPoint x="1580" y="280.0000000000002" as="targetPoint" />
            <Array as="points">
              <mxPoint x="1560" y="415" />
              <mxPoint x="1560" y="284" />
            </Array>
          </mxGeometry>
        </mxCell>
        <mxCell id="vCDj5FPh0WnIYjuXSxBG-142" value="外部入力" style="rounded=0;whiteSpace=wrap;html=1;" vertex="1" parent="WIyWlLk6GJQsqaUBKTNV-1">
          <mxGeometry x="1446" y="400" width="70" height="30" as="geometry" />
        </mxCell>
        <mxCell id="vCDj5FPh0WnIYjuXSxBG-147" style="edgeStyle=orthogonalEdgeStyle;rounded=0;orthogonalLoop=1;jettySize=auto;html=1;entryX=-0.188;entryY=0.521;entryDx=0;entryDy=0;entryPerimeter=0;" edge="1" parent="WIyWlLk6GJQsqaUBKTNV-1" source="vCDj5FPh0WnIYjuXSxBG-143" target="vCDj5FPh0WnIYjuXSxBG-146">
          <mxGeometry relative="1" as="geometry" />
        </mxCell>
        <mxCell id="vCDj5FPh0WnIYjuXSxBG-143" value="&lt;font size=&quot;1&quot;&gt;1&lt;br&gt;0&lt;br&gt;&lt;/font&gt;" style="ellipse;whiteSpace=wrap;html=1;" vertex="1" parent="WIyWlLk6GJQsqaUBKTNV-1">
          <mxGeometry x="1610" y="252.5" width="20" height="40" as="geometry" />
        </mxCell>
        <mxCell id="vCDj5FPh0WnIYjuXSxBG-164" style="edgeStyle=orthogonalEdgeStyle;rounded=0;orthogonalLoop=1;jettySize=auto;html=1;entryX=-0.109;entryY=0.696;entryDx=0;entryDy=0;entryPerimeter=0;" edge="1" parent="WIyWlLk6GJQsqaUBKTNV-1" source="vCDj5FPh0WnIYjuXSxBG-146" target="vCDj5FPh0WnIYjuXSxBG-162">
          <mxGeometry relative="1" as="geometry" />
        </mxCell>
        <mxCell id="vCDj5FPh0WnIYjuXSxBG-146" value="mdr" style="rounded=0;whiteSpace=wrap;html=1;" vertex="1" parent="WIyWlLk6GJQsqaUBKTNV-1">
          <mxGeometry x="1690" y="254" width="30" height="37" as="geometry" />
        </mxCell>
        <mxCell id="vCDj5FPh0WnIYjuXSxBG-149" value="" style="edgeStyle=orthogonalEdgeStyle;rounded=0;orthogonalLoop=1;jettySize=auto;html=1;entryDx=0;entryDy=0;entryPerimeter=0;endArrow=none;endFill=0;" edge="1" parent="WIyWlLk6GJQsqaUBKTNV-1" source="vCDj5FPh0WnIYjuXSxBG-113" target="vCDj5FPh0WnIYjuXSxBG-150">
          <mxGeometry relative="1" as="geometry">
            <mxPoint x="1271" y="265" as="sourcePoint" />
            <mxPoint x="1407" y="265" as="targetPoint" />
          </mxGeometry>
        </mxCell>
        <mxCell id="vCDj5FPh0WnIYjuXSxBG-151" style="edgeStyle=orthogonalEdgeStyle;rounded=0;orthogonalLoop=1;jettySize=auto;html=1;entryX=0.072;entryY=0.384;entryDx=0;entryDy=0;entryPerimeter=0;" edge="1" parent="WIyWlLk6GJQsqaUBKTNV-1" source="vCDj5FPh0WnIYjuXSxBG-150" target="vCDj5FPh0WnIYjuXSxBG-134">
          <mxGeometry relative="1" as="geometry">
            <Array as="points">
              <mxPoint x="1360" y="198" />
            </Array>
          </mxGeometry>
        </mxCell>
        <mxCell id="vCDj5FPh0WnIYjuXSxBG-150" value="" style="shape=waypoint;sketch=0;fillStyle=solid;size=6;pointerEvents=1;points=[];fillColor=none;resizable=0;rotatable=0;perimeter=centerPerimeter;snapToPoint=1;" vertex="1" parent="WIyWlLk6GJQsqaUBKTNV-1">
          <mxGeometry x="1350" y="255" width="20" height="20" as="geometry" />
        </mxCell>
        <mxCell id="vCDj5FPh0WnIYjuXSxBG-163" style="edgeStyle=orthogonalEdgeStyle;rounded=0;orthogonalLoop=1;jettySize=auto;html=1;entryX=-0.152;entryY=0.283;entryDx=0;entryDy=0;entryPerimeter=0;" edge="1" parent="WIyWlLk6GJQsqaUBKTNV-1" source="vCDj5FPh0WnIYjuXSxBG-153" target="vCDj5FPh0WnIYjuXSxBG-162">
          <mxGeometry relative="1" as="geometry" />
        </mxCell>
        <mxCell id="vCDj5FPh0WnIYjuXSxBG-153" value="dr" style="rounded=0;whiteSpace=wrap;html=1;" vertex="1" parent="WIyWlLk6GJQsqaUBKTNV-1">
          <mxGeometry x="1690" y="183" width="30" height="37" as="geometry" />
        </mxCell>
        <mxCell id="vCDj5FPh0WnIYjuXSxBG-158" value="&lt;font style=&quot;font-size: 10px;&quot; color=&quot;#3399ff&quot;&gt;mem&lt;br&gt;toreg&lt;/font&gt;" style="text;strokeColor=default;align=center;fillColor=none;html=1;verticalAlign=middle;whiteSpace=wrap;rounded=0;" vertex="1" parent="WIyWlLk6GJQsqaUBKTNV-1">
          <mxGeometry x="1690" y="-42.5" width="30" height="40" as="geometry" />
        </mxCell>
        <mxCell id="vCDj5FPh0WnIYjuXSxBG-161" style="edgeStyle=orthogonalEdgeStyle;rounded=0;orthogonalLoop=1;jettySize=auto;html=1;entryX=-0.12;entryY=0.507;entryDx=0;entryDy=0;entryPerimeter=0;" edge="1" parent="WIyWlLk6GJQsqaUBKTNV-1" source="vCDj5FPh0WnIYjuXSxBG-159" target="vCDj5FPh0WnIYjuXSxBG-41">
          <mxGeometry relative="1" as="geometry">
            <mxPoint x="640" y="300" as="targetPoint" />
            <Array as="points">
              <mxPoint x="1761" y="520" />
              <mxPoint x="1761" y="610" />
              <mxPoint x="630" y="610" />
              <mxPoint x="630" y="300" />
            </Array>
          </mxGeometry>
        </mxCell>
        <mxCell id="vCDj5FPh0WnIYjuXSxBG-159" value="rw" style="text;strokeColor=default;align=center;fillColor=none;html=1;verticalAlign=middle;whiteSpace=wrap;rounded=0;" vertex="1" parent="WIyWlLk6GJQsqaUBKTNV-1">
          <mxGeometry x="1690" y="505" width="30" height="30" as="geometry" />
        </mxCell>
        <mxCell id="vCDj5FPh0WnIYjuXSxBG-165" style="edgeStyle=orthogonalEdgeStyle;rounded=0;orthogonalLoop=1;jettySize=auto;html=1;entryX=-0.078;entryY=0.493;entryDx=0;entryDy=0;entryPerimeter=0;" edge="1" parent="WIyWlLk6GJQsqaUBKTNV-1" source="vCDj5FPh0WnIYjuXSxBG-162" target="vCDj5FPh0WnIYjuXSxBG-43">
          <mxGeometry relative="1" as="geometry">
            <mxPoint x="650" y="330" as="targetPoint" />
            <Array as="points">
              <mxPoint x="1841" y="235" />
              <mxPoint x="1841" y="630" />
              <mxPoint x="640" y="630" />
              <mxPoint x="640" y="330" />
            </Array>
          </mxGeometry>
        </mxCell>
        <mxCell id="vCDj5FPh0WnIYjuXSxBG-166" value="data" style="edgeLabel;html=1;align=center;verticalAlign=middle;resizable=0;points=[];" vertex="1" connectable="0" parent="vCDj5FPh0WnIYjuXSxBG-165">
          <mxGeometry x="-0.946" y="3" relative="1" as="geometry">
            <mxPoint as="offset" />
          </mxGeometry>
        </mxCell>
        <mxCell id="vCDj5FPh0WnIYjuXSxBG-162" value="&lt;font size=&quot;1&quot;&gt;0&lt;br&gt;1&lt;br&gt;&lt;/font&gt;" style="ellipse;whiteSpace=wrap;html=1;" vertex="1" parent="WIyWlLk6GJQsqaUBKTNV-1">
          <mxGeometry x="1790" y="215" width="20" height="40" as="geometry" />
        </mxCell>
        <mxCell id="vCDj5FPh0WnIYjuXSxBG-167" value="ID/EX" style="text;html=1;align=center;verticalAlign=middle;resizable=0;points=[];autosize=1;strokeColor=none;fillColor=none;" vertex="1" parent="WIyWlLk6GJQsqaUBKTNV-1">
          <mxGeometry x="980" y="-70" width="50" height="30" as="geometry" />
        </mxCell>
        <mxCell id="vCDj5FPh0WnIYjuXSxBG-168" value="EX/MEM" style="text;html=1;align=center;verticalAlign=middle;resizable=0;points=[];autosize=1;strokeColor=none;fillColor=none;" vertex="1" parent="WIyWlLk6GJQsqaUBKTNV-1">
          <mxGeometry x="1221" y="-70" width="70" height="30" as="geometry" />
        </mxCell>
        <mxCell id="vCDj5FPh0WnIYjuXSxBG-169" value="MEM/WB" style="text;html=1;align=center;verticalAlign=middle;resizable=0;points=[];autosize=1;strokeColor=none;fillColor=none;" vertex="1" parent="WIyWlLk6GJQsqaUBKTNV-1">
          <mxGeometry x="1670" y="-72.5" width="70" height="30" as="geometry" />
        </mxCell>
        <mxCell id="vCDj5FPh0WnIYjuXSxBG-170" value="pc&lt;br&gt;plus1" style="rounded=0;whiteSpace=wrap;html=1;" vertex="1" parent="WIyWlLk6GJQsqaUBKTNV-1">
          <mxGeometry x="480" y="100" width="30" height="40" as="geometry" />
        </mxCell>
        <mxCell id="vCDj5FPh0WnIYjuXSxBG-172" value="" style="endArrow=none;html=1;rounded=0;strokeColor=#3399FF;" edge="1" parent="WIyWlLk6GJQsqaUBKTNV-1" source="vCDj5FPh0WnIYjuXSxBG-173">
          <mxGeometry width="50" height="50" relative="1" as="geometry">
            <mxPoint x="680" y="560" as="sourcePoint" />
            <mxPoint x="680" y="540" as="targetPoint" />
          </mxGeometry>
        </mxCell>
        <mxCell id="vCDj5FPh0WnIYjuXSxBG-174" value="" style="endArrow=none;html=1;rounded=0;strokeColor=#3399FF;" edge="1" parent="WIyWlLk6GJQsqaUBKTNV-1" target="vCDj5FPh0WnIYjuXSxBG-173">
          <mxGeometry width="50" height="50" relative="1" as="geometry">
            <mxPoint x="680" y="560" as="sourcePoint" />
            <mxPoint x="680" y="540" as="targetPoint" />
          </mxGeometry>
        </mxCell>
        <mxCell id="vCDj5FPh0WnIYjuXSxBG-173" value="&lt;font color=&quot;#3399ff&quot;&gt;regdst&lt;/font&gt;" style="text;html=1;align=center;verticalAlign=middle;resizable=0;points=[];autosize=1;strokeColor=none;fillColor=none;" vertex="1" parent="WIyWlLk6GJQsqaUBKTNV-1">
          <mxGeometry x="650" y="552.5" width="60" height="30" as="geometry" />
        </mxCell>
        <mxCell id="vCDj5FPh0WnIYjuXSxBG-175" value="" style="endArrow=none;html=1;rounded=0;strokeColor=#3399FF;" edge="1" parent="WIyWlLk6GJQsqaUBKTNV-1" source="vCDj5FPh0WnIYjuXSxBG-177">
          <mxGeometry width="50" height="50" relative="1" as="geometry">
            <mxPoint x="900" y="320" as="sourcePoint" />
            <mxPoint x="900" y="300" as="targetPoint" />
          </mxGeometry>
        </mxCell>
        <mxCell id="vCDj5FPh0WnIYjuXSxBG-176" value="" style="endArrow=none;html=1;rounded=0;strokeColor=#3399FF;" edge="1" parent="WIyWlLk6GJQsqaUBKTNV-1" target="vCDj5FPh0WnIYjuXSxBG-177">
          <mxGeometry width="50" height="50" relative="1" as="geometry">
            <mxPoint x="900" y="320" as="sourcePoint" />
            <mxPoint x="900" y="300" as="targetPoint" />
          </mxGeometry>
        </mxCell>
        <mxCell id="vCDj5FPh0WnIYjuXSxBG-177" value="&lt;font color=&quot;#3399ff&quot;&gt;alusrc&lt;/font&gt;" style="text;html=1;align=center;verticalAlign=middle;resizable=0;points=[];autosize=1;strokeColor=none;fillColor=none;" vertex="1" parent="WIyWlLk6GJQsqaUBKTNV-1">
          <mxGeometry x="870" y="312.5" width="60" height="30" as="geometry" />
        </mxCell>
        <mxCell id="vCDj5FPh0WnIYjuXSxBG-179" value="" style="endArrow=none;html=1;rounded=0;strokeColor=#3399FF;" edge="1" parent="WIyWlLk6GJQsqaUBKTNV-1" source="vCDj5FPh0WnIYjuXSxBG-181">
          <mxGeometry width="50" height="50" relative="1" as="geometry">
            <mxPoint x="1620" y="312.5" as="sourcePoint" />
            <mxPoint x="1620" y="292.5" as="targetPoint" />
          </mxGeometry>
        </mxCell>
        <mxCell id="vCDj5FPh0WnIYjuXSxBG-180" value="" style="endArrow=none;html=1;rounded=0;strokeColor=#3399FF;" edge="1" parent="WIyWlLk6GJQsqaUBKTNV-1" target="vCDj5FPh0WnIYjuXSxBG-181">
          <mxGeometry width="50" height="50" relative="1" as="geometry">
            <mxPoint x="1620" y="312.5" as="sourcePoint" />
            <mxPoint x="1620" y="292.5" as="targetPoint" />
          </mxGeometry>
        </mxCell>
        <mxCell id="vCDj5FPh0WnIYjuXSxBG-181" value="&lt;font color=&quot;#3399ff&quot;&gt;memread&lt;/font&gt;" style="text;html=1;align=center;verticalAlign=middle;resizable=0;points=[];autosize=1;strokeColor=none;fillColor=none;" vertex="1" parent="WIyWlLk6GJQsqaUBKTNV-1">
          <mxGeometry x="1585" y="305" width="70" height="30" as="geometry" />
        </mxCell>
        <mxCell id="vCDj5FPh0WnIYjuXSxBG-182" value="" style="endArrow=none;html=1;rounded=0;strokeColor=#3399FF;" edge="1" parent="WIyWlLk6GJQsqaUBKTNV-1" source="vCDj5FPh0WnIYjuXSxBG-184">
          <mxGeometry width="50" height="50" relative="1" as="geometry">
            <mxPoint x="1800" y="275" as="sourcePoint" />
            <mxPoint x="1800" y="255" as="targetPoint" />
          </mxGeometry>
        </mxCell>
        <mxCell id="vCDj5FPh0WnIYjuXSxBG-183" value="" style="endArrow=none;html=1;rounded=0;strokeColor=#3399FF;" edge="1" parent="WIyWlLk6GJQsqaUBKTNV-1" target="vCDj5FPh0WnIYjuXSxBG-184">
          <mxGeometry width="50" height="50" relative="1" as="geometry">
            <mxPoint x="1800" y="275" as="sourcePoint" />
            <mxPoint x="1800" y="255" as="targetPoint" />
          </mxGeometry>
        </mxCell>
        <mxCell id="vCDj5FPh0WnIYjuXSxBG-184" value="&lt;font color=&quot;#3399ff&quot;&gt;memtoreg&lt;/font&gt;" style="text;html=1;align=center;verticalAlign=middle;resizable=0;points=[];autosize=1;strokeColor=none;fillColor=none;" vertex="1" parent="WIyWlLk6GJQsqaUBKTNV-1">
          <mxGeometry x="1760" y="267.5" width="80" height="30" as="geometry" />
        </mxCell>
        <mxCell id="vCDj5FPh0WnIYjuXSxBG-185" value="" style="edgeStyle=orthogonalEdgeStyle;rounded=0;orthogonalLoop=1;jettySize=auto;html=1;entryDx=0;entryDy=0;entryPerimeter=0;endArrow=none;endFill=0;" edge="1" parent="WIyWlLk6GJQsqaUBKTNV-1" source="vCDj5FPh0WnIYjuXSxBG-64" target="vCDj5FPh0WnIYjuXSxBG-186">
          <mxGeometry relative="1" as="geometry">
            <mxPoint x="790" y="270" as="sourcePoint" />
            <mxPoint x="894" y="270" as="targetPoint" />
          </mxGeometry>
        </mxCell>
        <mxCell id="vCDj5FPh0WnIYjuXSxBG-187" style="edgeStyle=orthogonalEdgeStyle;rounded=0;orthogonalLoop=1;jettySize=auto;html=1;entryX=-0.046;entryY=0.637;entryDx=0;entryDy=0;entryPerimeter=0;" edge="1" parent="WIyWlLk6GJQsqaUBKTNV-1" source="vCDj5FPh0WnIYjuXSxBG-186" target="vCDj5FPh0WnIYjuXSxBG-62">
          <mxGeometry relative="1" as="geometry">
            <Array as="points">
              <mxPoint x="810" y="358" />
            </Array>
          </mxGeometry>
        </mxCell>
        <mxCell id="vCDj5FPh0WnIYjuXSxBG-186" value="" style="shape=waypoint;sketch=0;fillStyle=solid;size=6;pointerEvents=1;points=[];fillColor=none;resizable=0;rotatable=0;perimeter=centerPerimeter;snapToPoint=1;" vertex="1" parent="WIyWlLk6GJQsqaUBKTNV-1">
          <mxGeometry x="800" y="260" width="20" height="20" as="geometry" />
        </mxCell>
        <mxCell id="vCDj5FPh0WnIYjuXSxBG-190" style="edgeStyle=orthogonalEdgeStyle;rounded=0;orthogonalLoop=1;jettySize=auto;html=1;" edge="1" parent="WIyWlLk6GJQsqaUBKTNV-1" source="vCDj5FPh0WnIYjuXSxBG-188" target="vCDj5FPh0WnIYjuXSxBG-189">
          <mxGeometry relative="1" as="geometry" />
        </mxCell>
        <mxCell id="vCDj5FPh0WnIYjuXSxBG-188" value="mem&lt;br&gt;write_&lt;br&gt;data" style="rounded=0;whiteSpace=wrap;html=1;" vertex="1" parent="WIyWlLk6GJQsqaUBKTNV-1">
          <mxGeometry x="990" y="330" width="30" height="50" as="geometry" />
        </mxCell>
        <mxCell id="vCDj5FPh0WnIYjuXSxBG-192" style="edgeStyle=orthogonalEdgeStyle;rounded=0;orthogonalLoop=1;jettySize=auto;html=1;entryX=-0.009;entryY=0.387;entryDx=0;entryDy=0;entryPerimeter=0;" edge="1" parent="WIyWlLk6GJQsqaUBKTNV-1" source="vCDj5FPh0WnIYjuXSxBG-189" target="vCDj5FPh0WnIYjuXSxBG-191">
          <mxGeometry relative="1" as="geometry" />
        </mxCell>
        <mxCell id="vCDj5FPh0WnIYjuXSxBG-189" value="mem&lt;br&gt;write_&lt;br&gt;data" style="rounded=0;whiteSpace=wrap;html=1;" vertex="1" parent="WIyWlLk6GJQsqaUBKTNV-1">
          <mxGeometry x="1241" y="330" width="30" height="50" as="geometry" />
        </mxCell>
        <mxCell id="vCDj5FPh0WnIYjuXSxBG-191" value="data" style="text;html=1;align=center;verticalAlign=middle;resizable=0;points=[];autosize=1;strokeColor=none;fillColor=none;" vertex="1" parent="WIyWlLk6GJQsqaUBKTNV-1">
          <mxGeometry x="1410" y="275" width="50" height="30" as="geometry" />
        </mxCell>
        <mxCell id="vCDj5FPh0WnIYjuXSxBG-193" value="wren" style="text;html=1;align=center;verticalAlign=middle;resizable=0;points=[];autosize=1;strokeColor=none;fillColor=none;" vertex="1" parent="WIyWlLk6GJQsqaUBKTNV-1">
          <mxGeometry x="1410" y="335" width="50" height="30" as="geometry" />
        </mxCell>
        <mxCell id="vCDj5FPh0WnIYjuXSxBG-194" value="" style="endArrow=none;html=1;rounded=0;entryX=0.2;entryY=0.5;entryDx=0;entryDy=0;entryPerimeter=0;strokeColor=#3399FF;" edge="1" parent="WIyWlLk6GJQsqaUBKTNV-1" target="vCDj5FPh0WnIYjuXSxBG-193">
          <mxGeometry width="50" height="50" relative="1" as="geometry">
            <mxPoint x="1360" y="380" as="sourcePoint" />
            <mxPoint x="1460" y="380" as="targetPoint" />
            <Array as="points">
              <mxPoint x="1360" y="350" />
            </Array>
          </mxGeometry>
        </mxCell>
        <mxCell id="vCDj5FPh0WnIYjuXSxBG-213" style="edgeStyle=orthogonalEdgeStyle;rounded=0;orthogonalLoop=1;jettySize=auto;html=1;entryX=-0.014;entryY=0.475;entryDx=0;entryDy=0;entryPerimeter=0;" edge="1" parent="WIyWlLk6GJQsqaUBKTNV-1" source="vCDj5FPh0WnIYjuXSxBG-195" target="vCDj5FPh0WnIYjuXSxBG-206">
          <mxGeometry relative="1" as="geometry" />
        </mxCell>
        <mxCell id="vCDj5FPh0WnIYjuXSxBG-195" value="rs" style="text;html=1;align=center;verticalAlign=middle;resizable=0;points=[];autosize=1;strokeColor=default;fillColor=none;" vertex="1" parent="WIyWlLk6GJQsqaUBKTNV-1">
          <mxGeometry x="480" y="380" width="30" height="30" as="geometry" />
        </mxCell>
        <mxCell id="vCDj5FPh0WnIYjuXSxBG-214" style="edgeStyle=orthogonalEdgeStyle;rounded=0;orthogonalLoop=1;jettySize=auto;html=1;entryX=-0.11;entryY=0.459;entryDx=0;entryDy=0;entryPerimeter=0;" edge="1" parent="WIyWlLk6GJQsqaUBKTNV-1" source="vCDj5FPh0WnIYjuXSxBG-196" target="vCDj5FPh0WnIYjuXSxBG-205">
          <mxGeometry relative="1" as="geometry" />
        </mxCell>
        <mxCell id="vCDj5FPh0WnIYjuXSxBG-196" value="rt" style="text;html=1;align=center;verticalAlign=middle;resizable=0;points=[];autosize=1;strokeColor=default;fillColor=none;" vertex="1" parent="WIyWlLk6GJQsqaUBKTNV-1">
          <mxGeometry x="480" y="410" width="30" height="30" as="geometry" />
        </mxCell>
        <mxCell id="vCDj5FPh0WnIYjuXSxBG-199" value="" style="endArrow=none;html=1;rounded=0;entryDx=0;entryDy=0;entryPerimeter=0;endFill=0;" edge="1" parent="WIyWlLk6GJQsqaUBKTNV-1" target="vCDj5FPh0WnIYjuXSxBG-200">
          <mxGeometry width="50" height="50" relative="1" as="geometry">
            <mxPoint x="320" y="240" as="sourcePoint" />
            <mxPoint x="477" y="241" as="targetPoint" />
          </mxGeometry>
        </mxCell>
        <mxCell id="vCDj5FPh0WnIYjuXSxBG-201" style="edgeStyle=orthogonalEdgeStyle;rounded=0;orthogonalLoop=1;jettySize=auto;html=1;" edge="1" parent="WIyWlLk6GJQsqaUBKTNV-1" source="vCDj5FPh0WnIYjuXSxBG-202">
          <mxGeometry relative="1" as="geometry">
            <mxPoint x="480" y="425" as="targetPoint" />
            <Array as="points">
              <mxPoint x="404" y="425" />
              <mxPoint x="479" y="425" />
            </Array>
          </mxGeometry>
        </mxCell>
        <mxCell id="vCDj5FPh0WnIYjuXSxBG-204" value="q[13:11]" style="edgeLabel;html=1;align=center;verticalAlign=middle;resizable=0;points=[];" vertex="1" connectable="0" parent="vCDj5FPh0WnIYjuXSxBG-201">
          <mxGeometry x="0.5163" y="3" relative="1" as="geometry">
            <mxPoint x="-24" y="3" as="offset" />
          </mxGeometry>
        </mxCell>
        <mxCell id="vCDj5FPh0WnIYjuXSxBG-200" value="" style="shape=waypoint;sketch=0;fillStyle=solid;size=6;pointerEvents=1;points=[];fillColor=none;resizable=0;rotatable=0;perimeter=centerPerimeter;snapToPoint=1;" vertex="1" parent="WIyWlLk6GJQsqaUBKTNV-1">
          <mxGeometry x="394" y="230" width="20" height="20" as="geometry" />
        </mxCell>
        <mxCell id="vCDj5FPh0WnIYjuXSxBG-205" value="rt" style="text;html=1;align=center;verticalAlign=middle;resizable=0;points=[];autosize=1;strokeColor=default;fillColor=none;" vertex="1" parent="WIyWlLk6GJQsqaUBKTNV-1">
          <mxGeometry x="990" y="410" width="30" height="30" as="geometry" />
        </mxCell>
        <mxCell id="vCDj5FPh0WnIYjuXSxBG-206" value="rs" style="text;html=1;align=center;verticalAlign=middle;resizable=0;points=[];autosize=1;strokeColor=default;fillColor=none;" vertex="1" parent="WIyWlLk6GJQsqaUBKTNV-1">
          <mxGeometry x="990" y="380" width="30" height="30" as="geometry" />
        </mxCell>
        <mxCell id="vCDj5FPh0WnIYjuXSxBG-207" value="" style="edgeStyle=orthogonalEdgeStyle;rounded=0;orthogonalLoop=1;jettySize=auto;html=1;entryDx=0;entryDy=0;entryPerimeter=0;endArrow=none;endFill=0;" edge="1" parent="WIyWlLk6GJQsqaUBKTNV-1" source="vCDj5FPh0WnIYjuXSxBG-38" target="vCDj5FPh0WnIYjuXSxBG-56">
          <mxGeometry relative="1" as="geometry">
            <mxPoint x="560" y="510" as="targetPoint" />
            <mxPoint x="560" y="240" as="sourcePoint" />
            <Array as="points" />
          </mxGeometry>
        </mxCell>
        <mxCell id="vCDj5FPh0WnIYjuXSxBG-56" value="" style="shape=waypoint;sketch=0;fillStyle=solid;size=6;pointerEvents=1;points=[];fillColor=none;resizable=0;rotatable=0;perimeter=centerPerimeter;snapToPoint=1;" vertex="1" parent="WIyWlLk6GJQsqaUBKTNV-1">
          <mxGeometry x="550" y="430" width="20" height="20" as="geometry" />
        </mxCell>
        <mxCell id="vCDj5FPh0WnIYjuXSxBG-209" value="" style="edgeStyle=orthogonalEdgeStyle;rounded=0;orthogonalLoop=1;jettySize=auto;html=1;endArrow=none;endFill=0;" edge="1" parent="WIyWlLk6GJQsqaUBKTNV-1" source="vCDj5FPh0WnIYjuXSxBG-200" target="vCDj5FPh0WnIYjuXSxBG-202">
          <mxGeometry relative="1" as="geometry">
            <mxPoint x="404" y="240" as="sourcePoint" />
            <mxPoint x="480" y="425" as="targetPoint" />
            <Array as="points" />
          </mxGeometry>
        </mxCell>
        <mxCell id="vCDj5FPh0WnIYjuXSxBG-211" style="edgeStyle=orthogonalEdgeStyle;rounded=0;orthogonalLoop=1;jettySize=auto;html=1;entryX=-0.157;entryY=0.475;entryDx=0;entryDy=0;entryPerimeter=0;" edge="1" parent="WIyWlLk6GJQsqaUBKTNV-1" source="vCDj5FPh0WnIYjuXSxBG-202" target="vCDj5FPh0WnIYjuXSxBG-195">
          <mxGeometry relative="1" as="geometry" />
        </mxCell>
        <mxCell id="vCDj5FPh0WnIYjuXSxBG-212" value="q[10:8]" style="edgeLabel;html=1;align=center;verticalAlign=middle;resizable=0;points=[];" vertex="1" connectable="0" parent="vCDj5FPh0WnIYjuXSxBG-211">
          <mxGeometry x="-0.104" y="1" relative="1" as="geometry">
            <mxPoint as="offset" />
          </mxGeometry>
        </mxCell>
        <mxCell id="vCDj5FPh0WnIYjuXSxBG-202" value="" style="shape=waypoint;sketch=0;fillStyle=solid;size=6;pointerEvents=1;points=[];fillColor=none;resizable=0;rotatable=0;perimeter=centerPerimeter;snapToPoint=1;" vertex="1" parent="WIyWlLk6GJQsqaUBKTNV-1">
          <mxGeometry x="394" y="385" width="20" height="20" as="geometry" />
        </mxCell>
      </root>
    </mxGraphModel>
  </diagram>
</mxfile>
